<?xml version="1.0" encoding="utf-8"?>
<!-- Generator: Adobe Illustrator 15.1.0, SVG Export Plug-In . SVG Version: 6.00 Build 0)  -->
<!DOCTYPE svg PUBLIC "-//W3C//DTD SVG 1.1//EN" "http://www.w3.org/Graphics/SVG/1.1/DTD/svg11.dtd">
<svg version="1.1" xmlns="http://www.w3.org/2000/svg" xmlns:xlink="http://www.w3.org/1999/xlink" x="0px" y="0px" width="1024px"
	 height="292px" viewBox="0 0 1024 292" enable-background="new 0 0 1024 292" xml:space="preserve">
<g id="Layer_1">
</g>
<g id="Layer_2">
	<path fill="none" d="M105.524,159.195c0,0,53.672-35.921,116.324-35.921S344.5,189.68,299.167,199.09
		c0,0-39.873-17.521,9.73-41.806"/>
	<g>
		<path fill="none" d="M1141.343,136.66"/>
	</g>
	<path fill="none" stroke="#A68CBE" stroke-width="2" stroke-miterlimit="10" stroke-dasharray="7" d="M99.41,143.625
		c66.774-46.855,168.37-57.852,211.775,10.72c18.415,29.092-28.108,38.254-28.461,10.719c-0.215-16.842,25.428-33.927,60.66-36.656
		c0,0,56.506-16.124,134.061,21.125c64.312,30.887,149.084,33.15,175.894-29.089c31.014-71.992-41.635-64.016-37.968-31.685
		c1.729,15.25,26.346,35.357,59.509,44.026c0,0,21.953,19.121,215.62-10.692c18.284-2.814,28.395-12.247,28.768-29.032
		c0.438-19.675-24.067-23.348-30.964-8.395c-6.462,14.013,10.23,22.405,17.935,17.664"/>
</g>
</svg>
