<svg id="SvgjsSvg1017" xmlns="http://www.w3.org/2000/svg" version="1.1" xmlns:xlink="http://www.w3.org/1999/xlink" xmlns:svgjs="http://svgjs.com/svgjs" width="410" height="54" viewBox="0 0 410 54"><title>Shape 12 copy 2</title><desc>Created with Avocode.</desc><defs id="SvgjsDefs1018"><linearGradient id="SvgjsLinearGradient1022" gradientUnits="userSpaceOnUse" x1="1110.25" y1="768" x2="1581.75" y2="768"><stop id="SvgjsStop1023" stop-opacity="1" stop-color="#c99f4c" offset="0"></stop><stop id="SvgjsStop1024" stop-opacity="1" stop-color="#f3d58d" offset="0.23"></stop><stop id="SvgjsStop1025" stop-opacity="1" stop-color="#fee8b1" offset="0.51"></stop><stop id="SvgjsStop1026" stop-opacity="1" stop-color="#eed391" offset="0.69"></stop><stop id="SvgjsStop1027" stop-opacity="1" stop-color="#c69c4a" offset="1"></stop></linearGradient><clipPath id="SvgjsClipPath1030"><path id="SvgjsPath1029" d="M1141 795L1141 741L1551 741L1551 795Z " fill="#ffffff"></path></clipPath></defs><path id="SvgjsPath1019" d="M1141 795L1141 741L1551 741L1551 795Z " fill="#72479e" fill-opacity="1" transform="matrix(1,0,0,1,-1141,-741)"></path><path id="SvgjsPath1020" d="M1141 795L1141 741L1551 741L1551 795Z " fill="#72479e" fill-opacity="1" transform="matrix(1,0,0,1,-1141,-741)"></path><path id="SvgjsPath1021" d="M1141 795L1141 741L1551 741L1551 795Z " fill="url(#SvgjsLinearGradient1022)" transform="matrix(1,0,0,1,-1141,-741)"></path><path id="SvgjsPath1028" d="M1141 795L1141 741L1551 741L1551 795Z " fill-opacity="0" fill="#ffffff" stroke-dasharray="0" stroke-linejoin="round" stroke-linecap="round" stroke-opacity="1" stroke="#ff63ff" stroke-miterlimit="50" stroke-width="2" clip-path="url(&quot;#SvgjsClipPath1030&quot;)" transform="matrix(1,0,0,1,-1141,-741)"></path></svg>