<svg id="SvgjsSvg1011" xmlns="http://www.w3.org/2000/svg" version="1.1" xmlns:xlink="http://www.w3.org/1999/xlink" xmlns:svgjs="http://svgjs.com/svgjs" width="61" height="61" viewBox="0 0 61 61"><title>Shape 13 copy 5</title><desc>Created with Avocode.</desc><defs id="SvgjsDefs1012"><clipPath id="SvgjsClipPath1016"><path id="SvgjsPath1015" d="M1170.82 451.823C1187.4299999999998 451.823 1200.8999999999999 465.291 1200.8999999999999 481.904C1200.8999999999999 498.517 1187.4299999999998 511.985 1170.82 511.985C1154.2 511.985 1140.74 498.517 1140.74 481.904C1140.74 465.291 1154.2 451.823 1170.82 451.823Z " fill="#ffffff"></path></clipPath></defs><path id="SvgjsPath1013" d="M1170.82 451.823C1187.4299999999998 451.823 1200.8999999999999 465.291 1200.8999999999999 481.904C1200.8999999999999 498.517 1187.4299999999998 511.985 1170.82 511.985C1154.2 511.985 1140.74 498.517 1140.74 481.904C1140.74 465.291 1154.2 451.823 1170.82 451.823Z " fill="#c083d6" fill-opacity="0" transform="matrix(1,0,0,1,-1140,-451)"></path><path id="SvgjsPath1014" d="M1170.82 451.823C1187.4299999999998 451.823 1200.8999999999999 465.291 1200.8999999999999 481.904C1200.8999999999999 498.517 1187.4299999999998 511.985 1170.82 511.985C1154.2 511.985 1140.74 498.517 1140.74 481.904C1140.74 465.291 1154.2 451.823 1170.82 451.823Z " fill-opacity="0" fill="#ffffff" stroke-dasharray="0" stroke-linejoin="round" stroke-linecap="round" stroke-opacity="1" stroke="#c083d6" stroke-miterlimit="50" stroke-width="4" clip-path="url(&quot;#SvgjsClipPath1016&quot;)" transform="matrix(1,0,0,1,-1140,-451)"></path></svg>